HIERARCHY
ROOT Hips
{
	OFFSET 0.000000 0.000000 0.000000
	CHANNELS 6 Xposition Yposition Zposition Xrotation Yrotation Zrotation
	JOINT LeftUpLeg_virtual
	{
		OFFSET 0.000000 0.000000 0.000000
		CHANNELS 3 Xrotation Yrotation Zrotation
		JOINT LeftUpLeg
		{
			OFFSET 15.427100 -6.655098 0.678600
			CHANNELS 3 Xrotation Yrotation Zrotation
			JOINT LeftLeg
			{
				OFFSET 4.081073 -39.591068 13.024000
				CHANNELS 3 Xrotation Yrotation Zrotation
				JOINT LeftFoot
				{
					OFFSET -4.081074 -37.707932 -15.979700
					CHANNELS 3 Xrotation Yrotation Zrotation
					JOINT LeftToeBase
					{
						OFFSET 5.346399 -15.068900 20.645000
						CHANNELS 3 Xrotation Yrotation Zrotation
						JOINT LeftToe_End
						{
							OFFSET 2.754700 0.931300 11.300900
							CHANNELS 3 Xrotation Yrotation Zrotation
							End Site
							{
								OFFSET 0 0 0
							}
						}
					}
				}
			}
		}
	}
	JOINT RightUpLeg_virtual
	{
		OFFSET 0.000000 0.000000 0.000000
		CHANNELS 3 Xrotation Yrotation Zrotation
		JOINT RightUpLeg
		{
			OFFSET -15.569500 -6.655098 0.678600
			CHANNELS 3 Xrotation Yrotation Zrotation
			JOINT RightLeg
			{
				OFFSET -4.081825 -39.591045 13.023800
				CHANNELS 3 Xrotation Yrotation Zrotation
				JOINT RightFoot
				{
					OFFSET 4.081824 -37.707954 -15.979600
					CHANNELS 3 Xrotation Yrotation Zrotation
					JOINT RightToeBase
					{
						OFFSET -5.346400 -15.068900 20.645000
						CHANNELS 3 Xrotation Yrotation Zrotation
						JOINT RightToe_End
						{
							OFFSET -2.754700 0.931300 11.300900
							CHANNELS 3 Xrotation Yrotation Zrotation
							End Site
							{
								OFFSET 0 0 0
							}
						}
					}
				}
			}
		}
	}
	JOINT Spine_virtual
	{
		OFFSET 0.000000 0.000000 0.000000
		CHANNELS 3 Xrotation Yrotation Zrotation
		JOINT Spine
		{
			OFFSET -0.279200 12.230698 -2.892100
			CHANNELS 3 Xrotation Yrotation Zrotation
			JOINT Spine1
			{
				OFFSET -0.232667 10.192268 -1.242267
				CHANNELS 3 Xrotation Yrotation Zrotation
				JOINT Spine1_split
				{
					OFFSET -0.232667 10.192268 -1.242267
					CHANNELS 3 Xrotation Yrotation Zrotation
					JOINT Spine2
					{
						OFFSET -0.232667 10.192268 -1.242267
						CHANNELS 3 Xrotation Yrotation Zrotation
						JOINT Neck_virtual
						{
							OFFSET 0.000000 0.000000 0.000000
							CHANNELS 3 Xrotation Yrotation Zrotation
							JOINT Neck
							{
								OFFSET -0.418800 17.814194 8.416900
								CHANNELS 3 Xrotation Yrotation Zrotation
								JOINT Head
								{
									OFFSET 0.000000 7.031097 3.806800
									CHANNELS 3 Xrotation Yrotation Zrotation
									JOINT HeadTop_End
									{
										OFFSET 0.000000 24.646606 12.978600
										CHANNELS 3 Xrotation Yrotation Zrotation
										End Site
										{
											OFFSET 0 0 0
										}
									}
								}
							}
						}
						JOINT LeftShoulder_virtual
						{
							OFFSET 0.000000 0.000000 0.000000
							CHANNELS 3 Xrotation Yrotation Zrotation
							JOINT LeftShoulder
							{
								OFFSET 8.476499 7.247704 -3.868750
								CHANNELS 3 Xrotation Yrotation Zrotation
								JOINT LeftShoulder_split
								{
									OFFSET 8.476499 7.247704 -3.868750
									CHANNELS 3 Xrotation Yrotation Zrotation
									JOINT LeftArm
									{
										OFFSET 9.308998 -2.777710 0.208600
										CHANNELS 3 Xrotation Yrotation Zrotation
										JOINT LeftForeArm
										{
											OFFSET 29.972298 0.000000 0.000000
											CHANNELS 3 Xrotation Yrotation Zrotation
											JOINT LeftHand
											{
												OFFSET 26.026505 0.000000 0.000000
												CHANNELS 3 Xrotation Yrotation Zrotation
												End Site
												{
													OFFSET 0 0 0
												}
											}
										}
									}
								}
							}
						}
						JOINT RightShoulder_virtual
						{
							OFFSET 0.000000 0.000000 0.000000
							CHANNELS 3 Xrotation Yrotation Zrotation
							JOINT RightShoulder
							{
								OFFSET -7.570500 7.247704 -3.868750
								CHANNELS 3 Xrotation Yrotation Zrotation
								JOINT RightShoulder_split
								{
									OFFSET -7.570500 7.247704 -3.868750
									CHANNELS 3 Xrotation Yrotation Zrotation
									JOINT RightArm
									{
										OFFSET -9.308998 -2.777710 0.208500
										CHANNELS 3 Xrotation Yrotation Zrotation
										JOINT RightForeArm
										{
											OFFSET -29.972300 0.000000 0.000000
											CHANNELS 3 Xrotation Yrotation Zrotation
											JOINT RightHand
											{
												OFFSET -26.026505 0.000000 0.000000
												CHANNELS 3 Xrotation Yrotation Zrotation
												End Site
												{
													OFFSET 0 0 0
												}
											}
										}
									}
								}
							}
						}
					}
				}
			}
		}
	}
}
MOTION
Frames: 9
Frame Time: 0.03333333
9.927422 83.604912 -6.400518 0.000000 0.000000 0.000000 15.438036 15.212710 1.753025 -4.791247 9.421397 4.891186 36.584979 1.166426 0.750569 14.498294 9.377657 -4.361909 6.759770 -6.711160 -2.275406 0.000000 0.000000 0.000000 10.934080 1.073069 -0.672018 -35.601220 -4.273383 -2.358799 49.391000 -9.245695 2.521019 -5.765910 -3.500821 19.755769 -10.936665 -0.906733 -10.913412 0.000000 0.000000 0.000000 12.390351 3.458836 -0.692617 0.050989 -0.758974 -0.295511 -0.040247 -4.191592 1.551183 -0.696670 1.793445 0.385881 0.000000 0.000000 0.000000 0.952326 -2.474147 2.682999 0.885862 -0.368885 -1.789613 -2.135424 20.787085 8.732790 0.000000 0.000000 0.000000 2.366228 -2.261273 2.782155 -3.679031 -2.285792 15.302180 1.518772 3.089285 -7.298981 -40.699461 -24.146870 -50.068046 165.457631 -58.110109 167.235297 0.000000 0.000000 0.000000 -8.841851 2.203553 0.772652 -9.437137 -18.081661 -0.297730 6.285913 -22.577670 3.216641 -89.089368 35.755736 99.632994 0.825918 63.641893 -0.523184 0.000000 0.000000 0.000000 
9.864298 86.408211 -8.557352 0.000000 0.000000 0.000000 16.334476 14.104420 0.345730 -13.942553 10.547486 8.528411 48.985891 -0.094582 0.054489 12.247473 8.487740 -2.510516 20.079749 0.254882 -3.794615 0.000000 0.000000 0.000000 11.351807 0.610963 -1.288838 -34.407378 -5.055260 -2.646738 48.240400 -8.623559 4.417988 -5.416484 -2.124326 18.321882 -4.627442 -0.443586 -7.172015 0.000000 0.000000 0.000000 13.563913 4.952251 -1.012359 1.843237 -0.907145 0.144823 0.653635 -4.234586 0.560957 -0.435164 1.941973 0.551983 0.000000 0.000000 0.000000 1.614588 -2.053209 2.557082 -0.009881 -0.768345 -2.244942 -4.422690 14.822062 9.821176 0.000000 0.000000 0.000000 1.303714 -2.266860 -0.286683 -1.713207 -6.528913 26.678917 2.236608 2.108244 -4.020005 -57.515718 -10.800766 -41.194128 169.178226 -63.830228 171.428555 0.000000 0.000000 0.000000 -3.855219 3.391042 3.186518 -9.083854 -16.797834 -6.591492 -0.367751 -13.754913 -0.526265 -88.437686 24.172103 86.847891 0.825918 63.641893 -0.523184 0.000000 0.000000 0.000000 
9.659803 87.626175 -10.558504 0.000000 0.000000 0.000000 17.346353 11.662165 -0.216693 -24.653723 11.340943 12.709404 65.637319 -1.369906 -0.642543 6.959382 8.679133 -0.107444 26.624243 7.967685 -3.956621 0.000000 0.000000 0.000000 12.352831 0.022699 -1.376110 -34.613821 -5.123309 -3.591439 50.398357 -8.271919 6.242378 -5.067586 -1.618373 14.420030 -7.105196 0.724002 -7.594824 0.000000 0.000000 0.000000 14.384150 5.552891 -0.812386 3.434130 -0.419908 0.364984 1.660803 -4.306723 -0.917383 -0.181075 1.973741 0.500154 0.000000 0.000000 0.000000 2.362682 -1.734835 2.168317 -0.682707 -1.234122 -2.406340 -6.634023 10.464634 10.198476 0.000000 0.000000 0.000000 1.129521 -1.892671 -3.177048 0.780179 -9.332953 36.157191 3.037968 1.780476 1.584065 -69.609941 -2.359923 -28.396785 174.537889 -72.550146 177.470403 0.000000 0.000000 0.000000 0.774778 4.475971 4.874651 -9.272418 -16.139515 -12.563095 -5.223674 -6.019028 -4.174488 -88.693531 11.562643 73.321452 0.825918 63.641893 -0.523184 0.000000 0.000000 0.000000 
9.200770 88.056404 -12.008436 0.000000 0.000000 0.000000 18.119942 8.768680 0.412492 -34.674517 11.226131 16.300571 80.484757 -2.221120 -1.182155 1.698782 9.563619 1.709094 26.836199 14.884208 -1.742230 0.000000 0.000000 0.000000 13.601155 -0.331449 -0.898462 -35.006195 -4.373590 -4.474468 52.911420 -7.919892 8.092330 -4.319148 -1.861833 9.351408 -13.925321 1.819743 -10.405609 0.000000 0.000000 0.000000 15.272778 5.195266 -0.329488 4.817198 0.397152 0.156354 2.512907 -4.313005 -2.569026 -0.107496 2.056593 0.287610 0.000000 0.000000 0.000000 3.011212 -1.522897 1.618941 -0.935127 -1.824149 -2.159988 -8.775739 8.162831 10.088520 0.000000 0.000000 0.000000 1.876749 -1.412572 -5.210087 2.540761 -10.284772 41.406728 3.224389 1.587095 6.510042 -74.901917 0.440459 -17.914630 -174.606983 -81.064401 -170.711836 0.000000 0.000000 0.000000 4.200759 5.187849 5.826383 -9.747646 -15.684177 -15.927509 -6.070773 -0.640412 -8.431437 -89.284294 1.510666 62.374408 0.825918 63.641893 -0.523184 0.000000 0.000000 0.000000 
8.508430 88.560135 -12.645475 0.000000 0.000000 0.000000 19.465986 6.159578 1.843596 -42.936963 10.707926 17.911258 86.453454 -2.676879 -1.834456 -0.304419 10.196461 1.643668 23.697999 18.073319 1.691980 0.000000 0.000000 0.000000 14.879169 -0.839968 -0.043906 -34.277871 -3.371143 -4.601605 52.645104 -7.767393 9.842655 -2.778110 -2.577813 5.500930 -18.748856 1.612115 -12.342177 0.000000 0.000000 0.000000 16.348310 4.084138 0.042554 5.635248 1.251697 -0.431172 3.029275 -4.286593 -3.907169 -0.283622 2.315104 0.003971 0.000000 0.000000 0.000000 3.405975 -1.369659 1.064644 -0.622125 -2.614666 -1.527616 -11.212888 7.905485 9.767031 0.000000 0.000000 0.000000 3.203561 -1.060523 -5.879758 2.718059 -9.461904 40.742283 3.162221 1.436466 8.338441 -73.541275 -0.052008 -13.704623 -151.550997 -86.215402 -147.007036 0.000000 0.000000 0.000000 5.664953 5.164531 6.280496 -9.767787 -15.096323 -15.226831 -4.130427 1.391369 -11.790498 -88.335028 -3.542044 56.280185 0.825918 63.641893 -0.523184 0.000000 0.000000 0.000000 
7.938677 89.324272 -12.574663 0.000000 0.000000 0.000000 21.029891 4.065380 2.727352 -48.758576 9.879881 17.439993 81.741006 -3.339831 -2.347469 1.395799 10.340072 -0.782907 20.356419 16.103921 4.877117 0.000000 0.000000 0.000000 16.214304 -1.709499 0.268106 -31.842325 -2.703728 -3.254378 48.666406 -7.802799 11.733931 -0.443740 -3.422452 4.217749 -16.902304 -0.480441 -11.389654 0.000000 0.000000 0.000000 17.356964 2.562083 -0.125840 5.773269 1.561585 -1.026286 2.900389 -4.247418 -4.521632 -0.553716 2.659013 -0.179609 0.000000 0.000000 0.000000 3.434770 -1.221595 0.706641 0.275425 -3.590495 -0.625075 -13.725825 9.470694 9.401877 0.000000 0.000000 0.000000 4.509110 -0.749030 -5.050273 1.205681 -7.022248 33.656584 2.238492 1.142738 7.053860 -66.775952 -2.193088 -16.408532 -160.280866 -86.275849 -155.677059 0.000000 0.000000 0.000000 4.943714 4.269770 6.555065 -8.833298 -13.947235 -10.650730 -1.889289 0.742517 -12.240281 -84.215092 -3.031452 55.659519 0.825918 63.641893 -0.523184 0.000000 0.000000 0.000000 
7.650834 89.717781 -11.925665 0.000000 0.000000 0.000000 21.957754 2.556575 2.042691 -52.036571 8.457256 15.809513 69.872104 -4.291214 -2.998327 5.082083 9.837857 -5.163324 17.116574 9.766489 6.594361 0.000000 0.000000 0.000000 17.560396 -3.314033 -0.040418 -27.852272 -2.665544 -1.002284 42.844291 -8.298413 13.224780 1.292321 -4.273879 5.573901 -11.633301 -2.669379 -8.777271 0.000000 0.000000 0.000000 18.204180 0.723548 -0.740669 5.012181 1.391188 -1.628235 2.008477 -4.060176 -4.453447 -0.691756 3.015700 -0.254394 0.000000 0.000000 0.000000 3.063089 -1.011166 0.641224 1.698521 -4.607372 0.323560 -15.710946 12.448623 9.011622 0.000000 0.000000 0.000000 5.261008 -0.239386 -2.983773 -1.267449 -2.653304 21.233955 0.378565 1.289301 4.258646 -55.635381 -5.559069 -24.406310 -179.852732 -82.112575 -176.007363 0.000000 0.000000 0.000000 2.559456 2.490573 6.529217 -6.743416 -12.468702 -3.065711 -0.395342 -1.439948 -9.314057 -75.828706 2.636627 58.993088 0.825918 63.641893 -0.523184 0.000000 0.000000 0.000000 
7.687039 88.881378 -10.642775 0.000000 0.000000 0.000000 22.733154 1.327558 0.787875 -54.146103 7.199187 13.393857 58.302119 -5.362688 -3.754307 7.618203 8.750243 -9.685635 11.460284 1.365918 7.352907 0.000000 0.000000 0.000000 19.246875 -4.983146 -0.853480 -22.939605 -3.039542 1.434065 38.419063 -9.346205 13.669733 1.771247 -5.117474 8.674960 -11.233276 -3.377200 -8.319821 0.000000 0.000000 0.000000 18.439595 -0.967268 -1.762499 3.344418 0.848522 -1.963544 0.949337 -3.788457 -3.828784 -0.621981 3.533181 -0.243389 0.000000 0.000000 0.000000 2.364799 -0.671421 0.775171 3.451371 -5.502795 1.113299 -16.777311 16.348480 8.502469 0.000000 0.000000 0.000000 5.236750 0.564040 -0.215451 -3.294162 3.040179 5.908747 -1.357799 2.050352 1.290921 -41.152532 -9.487998 -35.081354 173.777552 -78.628421 175.926070 0.000000 0.000000 0.000000 -0.533117 0.028945 6.017192 -3.782486 -11.261782 5.783141 0.280144 -4.842837 -4.837861 -63.696848 11.819955 62.227818 0.825918 63.641893 -0.523184 0.000000 0.000000 0.000000 
7.899157 86.612610 -8.993235 0.000000 0.000000 0.000000 23.228044 0.729543 -0.471613 -55.661404 6.120362 10.902263 52.938897 -6.227192 -3.959310 7.398761 8.181975 -12.828880 0.984305 -6.577120 7.863223 0.000000 0.000000 0.000000 20.892724 -7.371740 -1.944041 -18.281285 -3.559995 3.533573 37.149703 -10.426762 13.225654 1.213484 -5.639116 11.966378 -20.208747 -1.517770 -12.049655 0.000000 0.000000 0.000000 18.130725 -2.026192 -3.088061 1.221873 0.013045 -1.846407 0.053782 -3.386545 -2.994787 -0.401439 3.913991 -0.158342 0.000000 0.000000 0.000000 1.464065 -0.205719 0.925052 5.239262 -6.154264 1.618453 -16.410752 19.798277 7.942348 0.000000 0.000000 0.000000 4.491162 1.619248 2.514242 -3.999546 8.279047 -8.840260 -1.727326 2.896067 -0.798775 -24.559972 -12.574552 -44.194561 170.371556 -77.837068 170.830667 0.000000 0.000000 0.000000 -3.423694 -2.632446 4.956587 -0.724250 -10.547543 14.054139 0.637853 -9.695856 -1.287459 -49.607582 21.628673 62.287275 0.825918 63.641893 -0.523184 0.000000 0.000000 0.000000 
